<svg width="22" height="18" viewBox="0 0 22 18" fill="none" xmlns="http://www.w3.org/2000/svg">
<path d="M17.9249 1.42326C18.2771 1.08798 18.7457 0.902625 19.232 0.906304C19.7182 0.909983 20.184 1.10241 20.531 1.44298C20.8781 1.78355 21.0793 2.24562 21.0921 2.73169C21.105 3.21777 20.9285 3.68983 20.5999 4.04826L10.6249 16.5233C10.4534 16.708 10.2464 16.8563 10.0162 16.9592C9.78611 17.0621 9.53758 17.1175 9.28553 17.1222C9.03348 17.1269 8.78308 17.0807 8.5493 16.9863C8.31551 16.892 8.10315 16.7515 7.92491 16.5733L1.30991 9.95826C1.12569 9.7866 0.977933 9.5796 0.875453 9.3496C0.772974 9.11961 0.717869 8.87132 0.713427 8.61956C0.708985 8.36781 0.755297 8.11773 0.849599 7.88426C0.943902 7.65079 1.08426 7.43871 1.26231 7.26066C1.44036 7.08261 1.65244 6.94225 1.88591 6.84795C2.11938 6.75365 2.36946 6.70734 2.62121 6.71178C2.87297 6.71622 3.12125 6.77133 3.35125 6.87381C3.58125 6.97628 3.78825 7.12404 3.95991 7.30826L9.19491 12.5408L17.8774 1.47826C17.893 1.45901 17.9097 1.44065 17.9274 1.42326H17.9249Z" fill="white"/>
</svg>
