<svg width="21" height="17" viewBox="0 0 21 17" fill="none" xmlns="http://www.w3.org/2000/svg">
<path d="M17.5337 12.6989C19.7663 10.7065 21 8.449 21 8.449C21 8.449 17.0625 1.23025 10.5 1.23025C9.23946 1.23459 7.9932 1.49725 6.83813 2.002L7.84875 3.01394C8.69851 2.70439 9.59562 2.54495 10.5 2.54275C13.2825 2.54275 15.5912 4.07575 17.283 5.76756C18.0972 6.58616 18.8271 7.48448 19.4618 8.449C19.3856 8.56319 19.3016 8.68919 19.2058 8.827C18.7661 9.457 18.1164 10.297 17.283 11.1304C17.0664 11.347 16.8407 11.5609 16.6044 11.7683L17.5337 12.6989Z" fill="#52525B"/>
<path d="M14.8273 9.9925C15.1202 9.17329 15.1744 8.28776 14.9837 7.43893C14.793 6.5901 14.3652 5.81288 13.75 5.1977C13.1348 4.58252 12.3576 4.15468 11.5088 3.96396C10.6599 3.77324 9.77439 3.82748 8.95519 4.12038L10.0354 5.20056C10.5398 5.12837 11.0541 5.17463 11.5375 5.3357C12.0209 5.49677 12.4602 5.76821 12.8205 6.12851C13.1808 6.48882 13.4522 6.92809 13.6133 7.41151C13.7744 7.89493 13.8206 8.40922 13.7484 8.91363L14.8273 9.9925ZM10.9646 11.6974L12.0435 12.7763C11.2243 13.0692 10.3388 13.1234 9.48993 12.9327C8.6411 12.742 7.86388 12.3142 7.2487 11.699C6.63352 11.0838 6.20568 10.3066 6.01496 9.45776C5.82424 8.60893 5.87848 7.72339 6.17138 6.90419L7.25156 7.98438C7.17937 8.48878 7.22563 9.00307 7.3867 9.48649C7.54777 9.96991 7.81921 10.4092 8.17951 10.7695C8.53982 11.1298 8.97909 11.4012 9.46251 11.5623C9.94593 11.7234 10.4602 11.7696 10.9646 11.6974Z" fill="#52525B"/>
<path d="M4.39687 5.12838C4.16062 5.33838 3.93356 5.551 3.717 5.76756C2.90279 6.58616 2.17287 7.48448 1.53825 8.449L1.79419 8.827C2.23388 9.457 2.88356 10.297 3.717 11.1304C5.40881 12.8223 7.71881 14.3553 10.5 14.3553C11.4397 14.3553 12.3244 14.1807 13.1513 13.8828L14.1619 14.896C13.0068 15.4007 11.7605 15.6634 10.5 15.6678C3.9375 15.6678 0 8.449 0 8.449C0 8.449 1.23244 6.19019 3.46631 4.19913L4.39556 5.12969L4.39687 5.12838ZM17.9104 16.7886L2.16038 1.03863L3.08963 0.109375L18.8396 15.8594L17.9104 16.7886Z" fill="#52525B"/>
</svg>
