<svg width="21" height="15" viewBox="0 0 21 15" fill="none" xmlns="http://www.w3.org/2000/svg">
<path d="M17.5337 11.5858C19.7663 9.59344 21 7.33593 21 7.33593C21 7.33593 17.0625 0.117188 10.5 0.117188C9.23947 0.121528 7.9932 0.384184 6.83813 0.888939L7.84875 1.90087C8.69851 1.59132 9.59562 1.43189 10.5 1.42969C13.2825 1.42969 15.5912 2.96269 17.283 4.6545C18.0972 5.4731 18.8271 6.37141 19.4618 7.33593C19.3856 7.45012 19.3016 7.57612 19.2058 7.71394C18.7661 8.34394 18.1164 9.18394 17.283 10.0174C17.0664 10.2339 16.8407 10.4479 16.6044 10.6553L17.5337 11.5858Z" fill="#52525B"/>
<path d="M14.8273 8.87943C15.1202 8.06023 15.1744 7.17469 14.9837 6.32586C14.793 5.47703 14.3652 4.69981 13.75 4.08463C13.1348 3.46946 12.3576 3.04162 11.5088 2.8509C10.6599 2.66018 9.77439 2.71443 8.95519 3.00732L10.0354 4.0875C10.5398 4.0153 11.0541 4.06157 11.5375 4.22263C12.0209 4.3837 12.4602 4.65514 12.8205 5.01545C13.1808 5.37575 13.4522 5.81502 13.6133 6.29844C13.7744 6.78186 13.8206 7.29615 13.7484 7.80056L14.8273 8.87943ZM10.9646 10.5844L12.0435 11.6633C11.2243 11.9561 10.3388 12.0104 9.48993 11.8197C8.6411 11.6289 7.86388 11.2011 7.2487 10.5859C6.63352 9.97075 6.20568 9.19353 6.01496 8.3447C5.82424 7.49587 5.87848 6.61033 6.17138 5.79112L7.25156 6.87132C7.17937 7.37572 7.22563 7.89001 7.3867 8.37343C7.54777 8.85685 7.81921 9.29612 8.17951 9.65643C8.53982 10.0167 8.97909 10.2882 9.46251 10.4492C9.94593 10.6103 10.4602 10.6566 10.9646 10.5844Z" fill="#52525B"/>
<path d="M4.39687 4.01531C4.16062 4.22531 3.93356 4.43794 3.717 4.6545C2.90279 5.4731 2.17287 6.37141 1.53825 7.33593L1.79419 7.71394C2.23387 8.34394 2.88356 9.18394 3.717 10.0174C5.40881 11.7092 7.71881 13.2422 10.5 13.2422C11.4397 13.2422 12.3244 13.0676 13.1513 12.7697L14.1619 13.7829C13.0068 14.2877 11.7605 14.5503 10.5 14.5547C3.9375 14.5547 0 7.33593 0 7.33593C0 7.33593 1.23244 5.07713 3.46631 3.08607L4.39556 4.01662L4.39687 4.01531Z" fill="#52525B"/>
</svg>
