<svg width="12" height="14" viewBox="0 0 12 14" fill="none" xmlns="http://www.w3.org/2000/svg">
<path d="M6.3117 1.00353C6.27106 0.962789 6.22278 0.930464 6.16963 0.908409C6.11648 0.886353 6.0595 0.875 6.00195 0.875C5.94441 0.875 5.88743 0.886353 5.83427 0.908409C5.78112 0.930464 5.73284 0.962789 5.6922 1.00353L0.442204 6.25353C0.401602 6.29424 0.369421 6.34254 0.347501 6.39569C0.325581 6.44884 0.314351 6.50579 0.314454 6.56328L0.314454 12.6883C0.314454 12.8043 0.360547 12.9156 0.442595 12.9976C0.524642 13.0797 0.635922 13.1258 0.751954 13.1258H4.68945C4.80549 13.1258 4.91677 13.0797 4.99881 12.9976C5.08086 12.9156 5.12695 12.8043 5.12695 12.6883V9.18828L6.87695 9.18828V12.6883C6.87695 12.8043 6.92305 12.9156 7.00509 12.9976C7.08714 13.0797 7.19842 13.1258 7.31445 13.1258H11.252C11.368 13.1258 11.4793 13.0797 11.5613 12.9976C11.6434 12.9156 11.6895 12.8043 11.6895 12.6883V6.56328C11.6896 6.50579 11.6783 6.44884 11.6564 6.39569C11.6345 6.34254 11.6023 6.29424 11.5617 6.25353L10.377 5.06966V2.18828C10.377 2.07225 10.3309 1.96097 10.2488 1.87892C10.1668 1.79688 10.0555 1.75078 9.93945 1.75078L9.06445 1.75078C8.94842 1.75078 8.83714 1.79688 8.75509 1.87892C8.67305 1.96097 8.62695 2.07225 8.62695 2.18828V3.31966L6.3117 1.00353ZM1.18945 12.2508L1.18945 6.74441L6.00195 1.93191L10.8145 6.74441V12.2508H7.75195V8.75078C7.75195 8.63475 7.70586 8.52347 7.62381 8.44142C7.54177 8.35938 7.43049 8.31328 7.31445 8.31328H4.68945C4.57342 8.31328 4.46214 8.35938 4.3801 8.44142C4.29805 8.52347 4.25195 8.63475 4.25195 8.75078V12.2508H1.18945Z" fill="#0D6EFD"/>
</svg>
