<svg width="1596" height="1000" viewBox="0 0 1596 1000" fill="none" xmlns="http://www.w3.org/2000/svg">
<g opacity="0.5" clip-path="url(#clip0_228_3831)">
<rect width="1595" height="1000" transform="translate(0.5)" fill="#2D51A3"/>
<g opacity="0.3">
<path d="M574.553 232.629L555.024 198.82L535.551 232.629L516.059 266.456L555.061 266.419L594.082 266.401L574.553 232.629Z" stroke="white" stroke-opacity="0.6" stroke-width="2" stroke-miterlimit="10"/>
<path d="M509.978 645.699L490.449 611.891L470.976 645.718L451.484 679.527L490.486 679.49H529.506L509.978 645.699Z" stroke="white" stroke-opacity="0.6" stroke-width="2" stroke-miterlimit="10"/>
<path d="M733.815 772.544L714.286 738.754L694.813 772.563L675.321 806.39L714.323 806.353L753.343 806.334L733.815 772.544Z" stroke="white" stroke-opacity="0.6" stroke-width="2" stroke-miterlimit="10"/>
<path d="M862.537 513.111L872.618 475.395L834.955 485.535L797.274 495.657L824.874 523.233L852.475 550.827L862.537 513.111Z" stroke="white" stroke-opacity="0.6" stroke-width="2" stroke-miterlimit="10"/>
<path d="M221.026 75.3061L231.088 37.5898L193.426 47.7306L155.744 57.8528L183.345 85.4282L210.946 113.004L221.026 75.3061Z" stroke="white" stroke-opacity="0.6" stroke-width="2" stroke-miterlimit="10"/>
<path d="M194.3 890.122L204.38 852.406L166.718 862.547L129.036 872.669L156.637 900.245L184.238 927.839L194.3 890.122Z" stroke="white" stroke-opacity="0.6" stroke-width="2" stroke-miterlimit="10"/>
<path d="M902.078 117.433L935.854 97.8956L902.059 78.4141L868.247 58.9141L868.284 97.9328L868.303 136.97L902.078 117.433Z" stroke="white" stroke-opacity="0.6" stroke-width="2" stroke-miterlimit="10"/>
<path d="M193.444 507.339L227.22 487.802L193.426 468.32L159.613 448.82L159.65 487.839L159.669 526.876L193.444 507.339Z" stroke="white" stroke-opacity="0.6" stroke-width="2" stroke-miterlimit="10"/>
<path d="M640.486 443.443C640.486 459.799 627.243 473.047 610.895 473.047C594.547 473.047 581.304 459.799 581.304 443.443C581.304 427.088 594.547 413.84 610.895 413.84C627.243 413.84 640.486 427.088 640.486 443.443Z" stroke="white" stroke-opacity="0.6" stroke-width="2" stroke-miterlimit="10"/>
<path d="M490.933 113.006C490.933 129.361 477.69 142.61 461.342 142.61C444.993 142.61 431.751 129.361 431.751 113.006C431.751 96.6505 445.012 83.4023 461.342 83.4023C477.672 83.4023 490.933 96.6505 490.933 113.006Z" stroke="white" stroke-opacity="0.6" stroke-width="2" stroke-miterlimit="10"/>
<path d="M509.829 986.897C509.829 1003.25 496.587 1016.5 480.238 1016.5C463.89 1016.5 450.647 1003.25 450.647 986.897C450.647 970.541 463.908 957.293 480.238 957.293C496.568 957.293 509.829 970.541 509.829 986.897Z" stroke="white" stroke-opacity="0.6" stroke-width="2" stroke-miterlimit="10"/>
<path d="M588.985 942.631C588.985 926.276 602.246 913.027 618.576 913.027C634.906 913.027 648.167 926.276 648.167 942.631" stroke="white" stroke-opacity="0.6" stroke-width="2" stroke-miterlimit="10"/>
<path d="M352.762 487.858C352.762 471.502 366.023 458.254 382.353 458.254C398.682 458.254 411.943 471.502 411.943 487.858" stroke="white" stroke-opacity="0.6" stroke-width="2" stroke-miterlimit="10"/>
<path d="M41.3802 247.44C41.3802 231.084 54.5668 217.836 70.8407 217.836C87.1147 217.836 100.301 231.084 100.301 247.44" stroke="white" stroke-opacity="0.6" stroke-width="2" stroke-miterlimit="10"/>
<path d="M787.416 295.931C771.068 295.931 757.826 282.739 757.826 266.458C757.826 250.177 771.068 236.984 787.416 236.984" stroke="white" stroke-opacity="0.6" stroke-width="2" stroke-miterlimit="10"/>
<path d="M74.7465 986.747C58.3981 986.747 45.1558 973.555 45.1558 957.274C45.1558 940.993 58.3981 927.801 74.7465 927.801" stroke="white" stroke-opacity="0.6" stroke-width="2" stroke-miterlimit="10"/>
<path d="M392.34 45.0678C375.992 45.0678 362.749 31.8755 362.749 15.5945C362.749 -0.686598 375.992 -13.8789 392.34 -13.8789" stroke="white" stroke-opacity="0.6" stroke-width="2" stroke-miterlimit="10"/>
<path d="M89.5511 675.322C89.5511 691.678 76.3088 704.926 59.9604 704.926C43.6121 704.926 30.3697 691.678 30.3697 675.322C30.3697 658.967 43.6307 645.719 59.9604 645.719C76.2902 645.719 89.5511 658.967 89.5511 675.322Z" stroke="white" stroke-opacity="0.6" stroke-width="2" stroke-miterlimit="10"/>
<path d="M1002.23 709.131C1002.23 725.486 988.991 738.735 972.642 738.735C956.294 738.735 943.051 725.486 943.051 709.131C943.051 692.775 956.294 679.527 972.642 679.527C988.991 679.527 1002.23 692.775 1002.23 709.131Z" stroke="white" stroke-opacity="0.6" stroke-width="2" stroke-miterlimit="10"/>
<path d="M979.226 237H920.361V295.891H979.226V237Z" stroke="white" stroke-opacity="0.6" stroke-width="2" stroke-miterlimit="10"/>
<path d="M313.593 266.457H254.727V325.348H313.593V266.457Z" stroke="white" stroke-opacity="0.6" stroke-width="2" stroke-miterlimit="10"/>
<path d="M310.635 642.484H251.77V701.375H310.635V642.484Z" stroke="white" stroke-opacity="0.6" stroke-width="2" stroke-miterlimit="10"/>
<path d="M979.226 927.84H920.361V986.731H979.226V927.84Z" stroke="white" stroke-opacity="0.6" stroke-width="2" stroke-miterlimit="10"/>
<path d="M735.005 -13.8594H676.14V45.0315H735.005V-13.8594Z" stroke="white" stroke-opacity="0.6" stroke-width="2" stroke-miterlimit="10"/>
<path d="M591.552 585.028C578.7 585.028 580.914 562.234 564.509 562.234" stroke="white" stroke-opacity="0.6" stroke-width="2" stroke-miterlimit="10"/>
<path d="M645.619 585.028C632.767 585.028 634.98 562.234 618.576 562.234" stroke="white" stroke-opacity="0.6" stroke-width="2" stroke-miterlimit="10"/>
<path d="M591.552 585.028C604.404 585.028 602.191 562.234 618.595 562.234" stroke="white" stroke-opacity="0.6" stroke-width="2" stroke-miterlimit="10"/>
<path d="M645.619 585.028C658.471 585.028 656.257 562.234 672.662 562.234" stroke="white" stroke-opacity="0.6" stroke-width="2" stroke-miterlimit="10"/>
<path d="M745.588 1009.69C732.736 1009.69 734.949 986.879 718.545 986.879" stroke="white" stroke-opacity="0.6" stroke-width="2" stroke-miterlimit="10"/>
<path d="M799.654 1009.69C786.803 1009.69 789.016 986.898 772.612 986.898" stroke="white" stroke-opacity="0.6" stroke-width="2" stroke-miterlimit="10"/>
<path d="M745.588 1009.69C758.439 1009.69 756.226 986.898 772.63 986.898" stroke="white" stroke-opacity="0.6" stroke-width="2" stroke-miterlimit="10"/>
<path d="M799.654 1009.69C812.506 1009.69 810.293 986.88 826.697 986.898" stroke="white" stroke-opacity="0.6" stroke-width="2" stroke-miterlimit="10"/>
<path d="M819.313 397.45C806.462 397.45 808.675 374.656 792.271 374.656" stroke="white" stroke-opacity="0.6" stroke-width="2" stroke-miterlimit="10"/>
<path d="M873.38 397.45C860.528 397.45 862.742 374.656 846.338 374.656" stroke="white" stroke-opacity="0.6" stroke-width="2" stroke-miterlimit="10"/>
<path d="M819.313 397.45C832.165 397.45 829.952 374.656 846.356 374.656" stroke="white" stroke-opacity="0.6" stroke-width="2" stroke-miterlimit="10"/>
<path d="M873.38 397.45C886.232 397.45 884.019 374.656 900.423 374.656" stroke="white" stroke-opacity="0.6" stroke-width="2" stroke-miterlimit="10"/>
<path d="M67.4 369.891C54.5482 369.891 56.7615 347.098 40.3573 347.098" stroke="white" stroke-opacity="0.6" stroke-width="2" stroke-miterlimit="10"/>
<path d="M121.467 369.891C108.615 369.891 110.828 347.098 94.4241 347.098" stroke="white" stroke-opacity="0.6" stroke-width="2" stroke-miterlimit="10"/>
<path d="M67.4 369.891C80.2518 369.891 78.0386 347.098 94.4427 347.098" stroke="white" stroke-opacity="0.6" stroke-width="2" stroke-miterlimit="10"/>
<path d="M121.467 369.891C134.319 369.891 132.105 347.098 148.509 347.098" stroke="white" stroke-opacity="0.6" stroke-width="2" stroke-miterlimit="10"/>
<path d="M596.034 64.6445C596.034 77.5019 573.251 75.2877 573.251 91.699" stroke="white" stroke-opacity="0.6" stroke-width="2" stroke-miterlimit="10"/>
<path d="M596.034 10.5547C596.034 23.4121 573.251 21.1978 573.251 37.6092" stroke="white" stroke-opacity="0.6" stroke-width="2" stroke-miterlimit="10"/>
<path d="M596.034 64.6443C596.034 51.7869 573.251 54.0012 573.251 37.5898" stroke="white" stroke-opacity="0.6" stroke-width="2" stroke-miterlimit="10"/>
<path d="M596.034 10.5545C596.034 -2.30292 573.251 -0.0886948 573.251 -16.5" stroke="white" stroke-opacity="0.6" stroke-width="2" stroke-miterlimit="10"/>
<path d="M430.245 347.602C430.245 360.459 407.461 358.245 407.461 374.656" stroke="white" stroke-opacity="0.6" stroke-width="2" stroke-miterlimit="10"/>
<path d="M430.245 293.512C430.245 306.369 407.461 304.155 407.461 320.566" stroke="white" stroke-opacity="0.6" stroke-width="2" stroke-miterlimit="10"/>
<path d="M430.245 347.601C430.245 334.744 407.461 336.958 407.461 320.547" stroke="white" stroke-opacity="0.6" stroke-width="2" stroke-miterlimit="10"/>
<path d="M430.245 293.512C430.245 280.654 407.461 282.868 407.461 266.457" stroke="white" stroke-opacity="0.6" stroke-width="2" stroke-miterlimit="10"/>
<path d="M879.648 799.617C879.648 812.475 856.864 810.26 856.864 826.672" stroke="white" stroke-opacity="0.6" stroke-width="2" stroke-miterlimit="10"/>
<path d="M879.648 745.527C879.648 758.385 856.864 756.171 856.864 772.582" stroke="white" stroke-opacity="0.6" stroke-width="2" stroke-miterlimit="10"/>
<path d="M879.648 799.617C879.648 786.76 856.864 788.974 856.864 772.562" stroke="white" stroke-opacity="0.6" stroke-width="2" stroke-miterlimit="10"/>
<path d="M879.648 745.527C879.648 732.67 856.864 734.884 856.864 718.473" stroke="white" stroke-opacity="0.6" stroke-width="2" stroke-miterlimit="10"/>
<path d="M322.037 842.246C322.037 855.103 299.253 852.889 299.253 869.301" stroke="white" stroke-opacity="0.6" stroke-width="2" stroke-miterlimit="10"/>
<path d="M322.037 788.156C322.037 801.014 299.253 798.799 299.253 815.211" stroke="white" stroke-opacity="0.6" stroke-width="2" stroke-miterlimit="10"/>
<path d="M322.037 842.246C322.037 829.389 299.253 831.603 299.253 815.191" stroke="white" stroke-opacity="0.6" stroke-width="2" stroke-miterlimit="10"/>
<path d="M322.037 788.156C322.037 775.299 299.253 777.513 299.253 761.102" stroke="white" stroke-opacity="0.6" stroke-width="2" stroke-miterlimit="10"/>
<path d="M656.332 645.719H723.046" stroke="white" stroke-opacity="0.6" stroke-width="2" stroke-miterlimit="10"/>
<path d="M0.5 452.859H67.214" stroke="white" stroke-opacity="0.6" stroke-width="2" stroke-miterlimit="10"/>
<path d="M661.316 142.625H728.03" stroke="white" stroke-opacity="0.6" stroke-width="2" stroke-miterlimit="10"/>
<path d="M266.445 986.75H333.159" stroke="white" stroke-opacity="0.6" stroke-width="2" stroke-miterlimit="10"/>
<path d="M437.759 857.819L484.925 810.613" stroke="white" stroke-opacity="0.6" stroke-width="2" stroke-miterlimit="10"/>
<path d="M47.2574 39.1911L94.4241 -7.99609" stroke="white" stroke-opacity="0.6" stroke-width="2" stroke-miterlimit="10"/>
<path d="M957.651 522.992L1004.82 475.805" stroke="white" stroke-opacity="0.6" stroke-width="2" stroke-miterlimit="10"/>
</g>
<g opacity="0.3" filter="url(#filter0_d_228_3831)">
<path d="M1578.87 232.629L1559.34 198.82L1539.87 232.629L1520.38 266.456L1559.38 266.419L1598.4 266.401L1578.87 232.629Z" stroke="white" stroke-opacity="0.6" stroke-width="2" stroke-miterlimit="10"/>
<path d="M1514.3 645.699L1494.77 611.891L1475.29 645.718L1455.8 679.527L1494.8 679.49H1533.82L1514.3 645.699Z" stroke="white" stroke-opacity="0.6" stroke-width="2" stroke-miterlimit="10"/>
<path d="M1225.34 75.3061L1235.41 37.5898L1197.74 47.7306L1160.06 57.8528L1187.66 85.4282L1215.26 113.004L1225.34 75.3061Z" stroke="white" stroke-opacity="0.6" stroke-width="2" stroke-miterlimit="10"/>
<path d="M1198.62 890.122L1208.7 852.406L1171.04 862.547L1133.35 872.669L1160.96 900.245L1188.56 927.839L1198.62 890.122Z" stroke="white" stroke-opacity="0.6" stroke-width="2" stroke-miterlimit="10"/>
<path d="M1197.76 507.339L1231.54 487.802L1197.74 468.32L1163.93 448.82L1163.97 487.839L1163.99 526.876L1197.76 507.339Z" stroke="white" stroke-opacity="0.6" stroke-width="2" stroke-miterlimit="10"/>
<path d="M1644.8 443.443C1644.8 459.799 1631.56 473.047 1615.21 473.047C1598.86 473.047 1585.62 459.799 1585.62 443.443C1585.62 427.088 1598.86 413.84 1615.21 413.84C1631.56 413.84 1644.8 427.088 1644.8 443.443Z" stroke="white" stroke-opacity="0.6" stroke-width="2" stroke-miterlimit="10"/>
<path d="M1495.25 113.006C1495.25 129.361 1482.01 142.61 1465.66 142.61C1449.31 142.61 1436.07 129.361 1436.07 113.006C1436.07 96.6505 1449.33 83.4023 1465.66 83.4023C1481.99 83.4023 1495.25 96.6505 1495.25 113.006Z" stroke="white" stroke-opacity="0.6" stroke-width="2" stroke-miterlimit="10"/>
<path d="M1514.15 986.897C1514.15 1003.25 1500.9 1016.5 1484.56 1016.5C1468.21 1016.5 1454.97 1003.25 1454.97 986.897C1454.97 970.541 1468.23 957.293 1484.56 957.293C1500.89 957.293 1514.15 970.541 1514.15 986.897Z" stroke="white" stroke-opacity="0.6" stroke-width="2" stroke-miterlimit="10"/>
<path d="M1593.3 942.631C1593.3 926.276 1606.56 913.027 1622.89 913.027C1639.22 913.027 1652.48 926.276 1652.48 942.631" stroke="white" stroke-opacity="0.6" stroke-width="2" stroke-miterlimit="10"/>
<path d="M1357.08 487.858C1357.08 471.502 1370.34 458.254 1386.67 458.254C1403 458.254 1416.26 471.502 1416.26 487.858" stroke="white" stroke-opacity="0.6" stroke-width="2" stroke-miterlimit="10"/>
<path d="M1045.7 247.44C1045.7 231.084 1058.88 217.836 1075.16 217.836C1091.43 217.836 1104.62 231.084 1104.62 247.44" stroke="white" stroke-opacity="0.6" stroke-width="2" stroke-miterlimit="10"/>
<path d="M1079.06 986.747C1062.72 986.747 1049.47 973.555 1049.47 957.274C1049.47 940.993 1062.72 927.801 1079.06 927.801" stroke="white" stroke-opacity="0.6" stroke-width="2" stroke-miterlimit="10"/>
<path d="M1396.66 45.0678C1380.31 45.0678 1367.07 31.8755 1367.07 15.5945C1367.07 -0.686598 1380.31 -13.8789 1396.66 -13.8789" stroke="white" stroke-opacity="0.6" stroke-width="2" stroke-miterlimit="10"/>
<path d="M1093.87 675.322C1093.87 691.678 1080.63 704.926 1064.28 704.926C1047.93 704.926 1034.69 691.678 1034.69 675.322C1034.69 658.967 1047.95 645.719 1064.28 645.719C1080.61 645.719 1093.87 658.967 1093.87 675.322Z" stroke="white" stroke-opacity="0.6" stroke-width="2" stroke-miterlimit="10"/>
<path d="M1317.91 266.457H1259.05V325.348H1317.91V266.457Z" stroke="white" stroke-opacity="0.6" stroke-width="2" stroke-miterlimit="10"/>
<path d="M1314.95 642.484H1256.09V701.375H1314.95V642.484Z" stroke="white" stroke-opacity="0.6" stroke-width="2" stroke-miterlimit="10"/>
<path d="M1595.87 585.028C1583.02 585.028 1585.23 562.234 1568.83 562.234" stroke="white" stroke-opacity="0.6" stroke-width="2" stroke-miterlimit="10"/>
<path d="M1071.72 369.891C1058.87 369.891 1061.08 347.098 1044.68 347.098" stroke="white" stroke-opacity="0.6" stroke-width="2" stroke-miterlimit="10"/>
<path d="M1125.78 369.891C1112.93 369.891 1115.15 347.098 1098.74 347.098" stroke="white" stroke-opacity="0.6" stroke-width="2" stroke-miterlimit="10"/>
<path d="M1071.72 369.891C1084.57 369.891 1082.36 347.098 1098.76 347.098" stroke="white" stroke-opacity="0.6" stroke-width="2" stroke-miterlimit="10"/>
<path d="M1125.78 369.891C1138.64 369.891 1136.42 347.098 1152.83 347.098" stroke="white" stroke-opacity="0.6" stroke-width="2" stroke-miterlimit="10"/>
<path d="M1600.35 64.6445C1600.35 77.5019 1577.57 75.2877 1577.57 91.699" stroke="white" stroke-opacity="0.6" stroke-width="2" stroke-miterlimit="10"/>
<path d="M1600.35 10.5547C1600.35 23.4121 1577.57 21.1978 1577.57 37.6092" stroke="white" stroke-opacity="0.6" stroke-width="2" stroke-miterlimit="10"/>
<path d="M1600.35 64.6443C1600.35 51.7869 1577.57 54.0012 1577.57 37.5898" stroke="white" stroke-opacity="0.6" stroke-width="2" stroke-miterlimit="10"/>
<path d="M1600.35 10.5545C1600.35 -2.30292 1577.57 -0.0886948 1577.57 -16.5" stroke="white" stroke-opacity="0.6" stroke-width="2" stroke-miterlimit="10"/>
<path d="M1434.56 347.602C1434.56 360.459 1411.78 358.245 1411.78 374.656" stroke="white" stroke-opacity="0.6" stroke-width="2" stroke-miterlimit="10"/>
<path d="M1434.56 293.512C1434.56 306.369 1411.78 304.155 1411.78 320.566" stroke="white" stroke-opacity="0.6" stroke-width="2" stroke-miterlimit="10"/>
<path d="M1434.56 347.601C1434.56 334.744 1411.78 336.958 1411.78 320.547" stroke="white" stroke-opacity="0.6" stroke-width="2" stroke-miterlimit="10"/>
<path d="M1434.56 293.512C1434.56 280.654 1411.78 282.868 1411.78 266.457" stroke="white" stroke-opacity="0.6" stroke-width="2" stroke-miterlimit="10"/>
<path d="M1326.35 842.246C1326.35 855.103 1303.57 852.889 1303.57 869.301" stroke="white" stroke-opacity="0.6" stroke-width="2" stroke-miterlimit="10"/>
<path d="M1326.35 788.156C1326.35 801.014 1303.57 798.799 1303.57 815.211" stroke="white" stroke-opacity="0.6" stroke-width="2" stroke-miterlimit="10"/>
<path d="M1326.35 842.246C1326.35 829.389 1303.57 831.603 1303.57 815.191" stroke="white" stroke-opacity="0.6" stroke-width="2" stroke-miterlimit="10"/>
<path d="M1326.35 788.156C1326.35 775.299 1303.57 777.513 1303.57 761.102" stroke="white" stroke-opacity="0.6" stroke-width="2" stroke-miterlimit="10"/>
<path d="M1004.82 452.859H1071.53" stroke="white" stroke-opacity="0.6" stroke-width="2" stroke-miterlimit="10"/>
<path d="M1270.76 986.75H1337.48" stroke="white" stroke-opacity="0.6" stroke-width="2" stroke-miterlimit="10"/>
<path d="M1442.08 857.819L1489.24 810.613" stroke="white" stroke-opacity="0.6" stroke-width="2" stroke-miterlimit="10"/>
<path d="M1051.58 39.1911L1098.74 -7.99609" stroke="white" stroke-opacity="0.6" stroke-width="2" stroke-miterlimit="10"/>
</g>
</g>
<defs>
<filter id="filter0_d_228_3831" x="1000.82" y="-16.5" width="1013.03" height="1042" filterUnits="userSpaceOnUse" color-interpolation-filters="sRGB">
<feFlood flood-opacity="0" result="BackgroundImageFix"/>
<feColorMatrix in="SourceAlpha" type="matrix" values="0 0 0 0 0 0 0 0 0 0 0 0 0 0 0 0 0 0 127 0" result="hardAlpha"/>
<feOffset dy="4"/>
<feGaussianBlur stdDeviation="2"/>
<feComposite in2="hardAlpha" operator="out"/>
<feColorMatrix type="matrix" values="0 0 0 0 0 0 0 0 0 0 0 0 0 0 0 0 0 0 0.25 0"/>
<feBlend mode="normal" in2="BackgroundImageFix" result="effect1_dropShadow_228_3831"/>
<feBlend mode="normal" in="SourceGraphic" in2="effect1_dropShadow_228_3831" result="shape"/>
</filter>
<clipPath id="clip0_228_3831">
<rect width="1595" height="1000" fill="white" transform="translate(0.5)"/>
</clipPath>
</defs>
</svg>
