<svg width="93" height="38" viewBox="0 0 93 38" fill="none" xmlns="http://www.w3.org/2000/svg">
<path d="M8.24966 5.6251H22.5133V0H7.07069C4.13468 0 0.00212619 2.70417 0.00212619 6.49036V9.89898C0.00212619 9.89898 -0.324683 17.9591 7.12516 17.9591H13.9214C13.9214 17.9591 17.2106 18.1216 17.2106 21.2313C17.2106 24.341 14.3554 24.2082 14.3554 24.2082H0.000369156V30.1829L3.92208 36.4425L4.50717 30.1829H15.4992C15.4992 30.1829 22.5133 29.6428 22.5133 23.9075V18.8226C22.5133 16.6585 19.9041 12.4388 16.3145 12.4388C11.2577 12.4388 8.81191 12.3305 8.81191 12.3305C8.81191 12.3305 5.57721 12.0962 5.57721 9.11238C5.57721 6.12853 8.24966 5.62335 8.24966 5.62335V5.6251Z" fill="#F7941D"/>
<path d="M49.6383 0H26.6387V17.7528L32.7251 17.6357V5.99218H48.5261C51.2179 5.99218 51.687 9.13685 51.687 9.13685C51.687 9.13685 51.4533 18.1024 51.4533 21.3642C51.4533 24.626 47.2399 24.2467 47.2399 24.2467H26.6404V27.012L32.8568 36.4443L32.7865 30.3315C32.7865 30.3315 44.5499 30.2983 49.6418 30.2983C53.0944 30.2983 57.7172 25.5 57.7172 21.7155V8.84493C57.7172 4.0414 52.5374 0 49.6418 0H49.6383Z" fill="#2D51A3"/>
<path d="M37.3085 35.2155C37.2945 35.2382 37.2804 35.2557 37.2646 35.2662C37.2488 35.2784 37.2295 35.2837 37.2066 35.2837C37.1803 35.2837 37.1504 35.2714 37.1152 35.2452C37.0801 35.219 37.0362 35.191 36.9835 35.1596C36.9308 35.1281 36.8675 35.1001 36.7937 35.0739C36.7199 35.0477 36.6303 35.0355 36.5249 35.0355C36.4265 35.0355 36.3386 35.0494 36.2631 35.0757C36.1875 35.1019 36.1243 35.1386 36.0733 35.184C36.0224 35.2295 35.9837 35.2837 35.9574 35.3449C35.931 35.406 35.9187 35.4725 35.9187 35.5441C35.9187 35.635 35.9415 35.7102 35.9855 35.7696C36.0294 35.8291 36.0891 35.8798 36.1629 35.9235C36.2367 35.9654 36.3211 36.0021 36.4142 36.0336C36.5073 36.065 36.6039 36.0965 36.7023 36.1297C36.8007 36.1629 36.8956 36.2014 36.9905 36.2416C37.0854 36.2818 37.168 36.336 37.2418 36.3989C37.3155 36.4618 37.3753 36.5405 37.4192 36.6331C37.4631 36.7258 37.486 36.8394 37.486 36.974C37.486 37.1156 37.4614 37.2502 37.4122 37.3743C37.363 37.4984 37.2927 37.6085 37.1996 37.7012C37.1065 37.7938 36.9905 37.8655 36.8552 37.9197C36.7182 37.9721 36.5635 38.0001 36.3896 38.0001C36.177 38.0001 35.9837 37.9616 35.8098 37.8847C35.6358 37.8078 35.4882 37.7047 35.3652 37.5753L35.4935 37.3656C35.5058 37.3481 35.5199 37.3341 35.5374 37.3236C35.555 37.3131 35.5743 37.3061 35.5954 37.3061C35.6147 37.3061 35.6376 37.3131 35.6622 37.3306C35.6868 37.3463 35.7166 37.3673 35.7483 37.39C35.7799 37.4128 35.8168 37.4407 35.8572 37.4704C35.8976 37.5002 35.9451 37.5264 35.9978 37.5508C36.0505 37.5753 36.1102 37.5945 36.177 37.6103C36.2438 37.626 36.3193 37.6348 36.4036 37.6348C36.5091 37.6348 36.6022 37.6208 36.6848 37.5911C36.7673 37.5613 36.8359 37.5211 36.8939 37.4687C36.9518 37.4163 36.994 37.3533 37.0256 37.2817C37.0555 37.2082 37.0713 37.1278 37.0713 37.0387C37.0713 36.9408 37.0485 36.8586 37.0046 36.7975C36.9606 36.7363 36.9009 36.6821 36.8271 36.6401C36.7533 36.5982 36.6707 36.5615 36.5758 36.5318C36.481 36.502 36.3861 36.4723 36.2877 36.4409C36.191 36.4094 36.0944 36.3744 35.9995 36.3325C35.9046 36.2923 35.8221 36.2381 35.7483 36.1734C35.6745 36.1087 35.6165 36.0266 35.5708 35.9287C35.5251 35.8308 35.504 35.7102 35.504 35.5669C35.504 35.4515 35.5269 35.3396 35.5708 35.233C35.6147 35.1264 35.6815 35.0302 35.7676 34.9463C35.8537 34.8624 35.9591 34.796 36.0856 34.747C36.2104 34.6963 36.3562 34.6719 36.5179 34.6719C36.7006 34.6719 36.8675 34.6998 37.0168 34.7575C37.1662 34.8152 37.2997 34.8991 37.4122 35.0075L37.305 35.2173L37.3085 35.2155Z" fill="#2D51A3"/>
<path d="M41.5303 34.707V37.9636H41.0875V36.4813H39.3217V37.9636H38.8789V34.707H39.3217V36.1596H41.0875V34.707H41.5303Z" fill="#2D51A3"/>
<path d="M43.5717 37.9636H43.1289V34.707H43.5717V37.9636Z" fill="#2D51A3"/>
<path d="M47.8211 34.707V37.9636H47.5997C47.5646 37.9636 47.5347 37.9566 47.5119 37.9461C47.489 37.9339 47.4644 37.9129 47.4416 37.8849L45.5475 35.4307C45.551 35.4692 45.5528 35.5059 45.5545 35.5426C45.5563 35.5793 45.5563 35.6125 45.5563 35.644V37.9636H45.168V34.707H45.3964C45.4157 34.707 45.4333 34.707 45.4473 34.7105C45.4614 34.7123 45.4737 34.7158 45.4842 34.721C45.4948 34.7263 45.5053 34.7333 45.5159 34.7437C45.5264 34.7542 45.5369 34.7665 45.5492 34.7804L47.4433 37.2329C47.4398 37.1927 47.4381 37.156 47.4345 37.1175C47.4328 37.0808 47.431 37.0459 47.431 37.0127V34.707H47.8193H47.8211Z" fill="#2D51A3"/>
<path d="M49.8627 37.9636H49.4199V34.707H49.8627V37.9636Z" fill="#2D51A3"/>
<path d="M54.1141 34.707V37.9636H53.8927C53.8575 37.9636 53.8277 37.9566 53.8048 37.9461C53.782 37.9339 53.7574 37.9129 53.7345 37.8849L51.8405 35.4307C51.844 35.4692 51.8457 35.5059 51.8475 35.5426C51.8492 35.5793 51.8492 35.6125 51.8492 35.644V37.9636H51.4609V34.707H51.6894C51.7087 34.707 51.7262 34.707 51.7403 34.7105C51.7544 34.7123 51.7667 34.7158 51.7772 34.721C51.7877 34.7263 51.7983 34.7333 51.8088 34.7437C51.8194 34.7542 51.8299 34.7665 51.8422 34.7804L53.7363 37.2329C53.7328 37.1927 53.731 37.156 53.7275 37.1175C53.7258 37.0808 53.724 37.0459 53.724 37.0127V34.707H54.1123H54.1141Z" fill="#2D51A3"/>
<path d="M58.3718 36.4007V37.6505C58.2066 37.7694 58.0327 37.8568 57.8447 37.9144C57.6584 37.9721 57.4529 38.0018 57.2315 38.0018C56.9679 38.0018 56.7307 37.9616 56.5181 37.8795C56.3073 37.7991 56.1263 37.6854 55.9752 37.5386C55.8258 37.3918 55.7099 37.217 55.629 37.0125C55.5482 36.8079 55.5078 36.5825 55.5078 36.3377C55.5078 36.093 55.5465 35.8623 55.6255 35.6578C55.7046 35.4532 55.8153 35.2784 55.9594 35.1316C56.1034 34.9848 56.2791 34.8729 56.4865 34.7925C56.6938 34.7121 56.9257 34.6719 57.1805 34.6719C57.3105 34.6719 57.43 34.6806 57.5407 34.6998C57.6514 34.7191 57.7551 34.7453 57.8482 34.782C57.9431 34.817 58.0309 34.8607 58.1117 34.9114C58.1926 34.962 58.2681 35.0197 58.3384 35.0827L58.2136 35.2819C58.1943 35.3116 58.168 35.3309 58.1363 35.3396C58.1047 35.3484 58.0696 35.3396 58.0327 35.3186C57.9958 35.2977 57.9536 35.2714 57.9079 35.2417C57.8605 35.212 57.8025 35.1823 57.7357 35.1543C57.6672 35.1264 57.5881 35.1019 57.495 35.0827C57.4037 35.0634 57.293 35.0529 57.1665 35.0529C56.982 35.0529 56.815 35.0827 56.6657 35.1421C56.5164 35.2015 56.3898 35.2872 56.2844 35.399C56.179 35.5109 56.0982 35.6455 56.0419 35.8028C55.9857 35.9619 55.9576 36.1385 55.9576 36.336C55.9576 36.5335 55.9875 36.724 56.0455 36.8849C56.1034 37.0457 56.1878 37.1838 56.2967 37.2956C56.4057 37.4093 56.5374 37.4949 56.6938 37.5543C56.8484 37.6138 57.0241 37.6435 57.2174 37.6435C57.3703 37.6435 57.5056 37.626 57.6233 37.5928C57.741 37.5596 57.857 37.5106 57.9694 37.4512V36.7363H57.4599C57.43 36.7363 57.4072 36.7275 57.3896 36.7118C57.372 36.6943 57.3632 36.6751 57.3632 36.6506V36.4007H58.3683H58.3718Z" fill="#2D51A3"/>
<path d="M63.4198 35.2155C63.4058 35.2382 63.3917 35.2557 63.3759 35.2662C63.3601 35.2784 63.3408 35.2837 63.3179 35.2837C63.2916 35.2837 63.2617 35.2714 63.2266 35.2452C63.1914 35.219 63.1475 35.191 63.0948 35.1596C63.0421 35.1281 62.9788 35.1001 62.905 35.0739C62.8312 35.0477 62.7416 35.0355 62.6362 35.0355C62.5378 35.0355 62.45 35.0494 62.3744 35.0757C62.2989 35.1019 62.2356 35.1386 62.1846 35.184C62.1337 35.2295 62.095 35.2837 62.0687 35.3449C62.0423 35.406 62.03 35.4725 62.03 35.5441C62.03 35.635 62.0529 35.7102 62.0968 35.7696C62.1407 35.8291 62.2005 35.8798 62.2743 35.9235C62.348 35.9654 62.4324 36.0021 62.5255 36.0336C62.6186 36.065 62.7153 36.0965 62.8137 36.1297C62.9121 36.1629 63.0069 36.2014 63.1018 36.2416C63.1967 36.2818 63.2793 36.336 63.3531 36.3989C63.4269 36.4618 63.4866 36.5405 63.5305 36.6331C63.5745 36.7258 63.5973 36.8394 63.5973 36.974C63.5973 37.1156 63.5727 37.2502 63.5235 37.3743C63.4743 37.4984 63.404 37.6085 63.3109 37.7012C63.2178 37.7938 63.1018 37.8655 62.9665 37.9197C62.8295 37.9721 62.6749 38.0001 62.5009 38.0001C62.2883 38.0001 62.095 37.9616 61.9211 37.8847C61.7471 37.8078 61.5996 37.7047 61.4766 37.5753L61.6048 37.3656C61.6171 37.3481 61.6312 37.3341 61.6487 37.3236C61.6663 37.3131 61.6856 37.3061 61.7067 37.3061C61.7261 37.3061 61.7489 37.3131 61.7735 37.3306C61.7981 37.3463 61.828 37.3673 61.8596 37.39C61.8912 37.4128 61.9281 37.4407 61.9685 37.4704C62.0089 37.5002 62.0564 37.5264 62.1091 37.5508C62.1618 37.5753 62.2215 37.5945 62.2883 37.6103C62.3551 37.626 62.4306 37.6348 62.515 37.6348C62.6204 37.6348 62.7135 37.6208 62.7961 37.5911C62.8787 37.5613 62.9472 37.5211 63.0052 37.4687C63.0632 37.4163 63.1053 37.3533 63.137 37.2817C63.1668 37.2082 63.1826 37.1278 63.1826 37.0387C63.1826 36.9408 63.1598 36.8586 63.1159 36.7975C63.072 36.7363 63.0122 36.6821 62.9384 36.6401C62.8646 36.5982 62.782 36.5615 62.6872 36.5318C62.5923 36.502 62.4974 36.4723 62.399 36.4409C62.3024 36.4094 62.2057 36.3744 62.1109 36.3325C62.016 36.2923 61.9334 36.2381 61.8596 36.1734C61.7858 36.1087 61.7278 36.0266 61.6821 35.9287C61.6364 35.8308 61.6154 35.7102 61.6154 35.5669C61.6154 35.4515 61.6382 35.3396 61.6821 35.233C61.7261 35.1264 61.7928 35.0302 61.8789 34.9463C61.965 34.8624 62.0704 34.796 62.1969 34.747C62.3217 34.6963 62.4675 34.6719 62.6292 34.6719C62.8119 34.6719 62.9788 34.6998 63.1282 34.7575C63.2775 34.8152 63.4111 34.8991 63.5235 35.0075L63.4163 35.2173L63.4198 35.2155Z" fill="#2D51A3"/>
<path d="M67.0071 37.6052V37.9636H64.9883V34.707H67.0054V35.0654H65.4311V36.1474H66.7049V36.4935H65.4311V37.6052H67.0071Z" fill="#2D51A3"/>
<path d="M70.6155 37.2939C70.6401 37.2939 70.6612 37.3044 70.6788 37.3236L70.8545 37.5124C70.7209 37.6662 70.5575 37.7868 70.366 37.8742C70.1745 37.9599 69.9443 38.0036 69.672 38.0036C69.4383 38.0036 69.2239 37.9634 69.0324 37.8812C68.8409 37.8008 68.6775 37.6872 68.5422 37.5404C68.4069 37.3935 68.3015 37.2187 68.2277 37.0142C68.1539 36.8097 68.1152 36.5842 68.1152 36.3395C68.1152 36.0948 68.1539 35.8693 68.2312 35.6647C68.3085 35.4602 68.4174 35.2837 68.5598 35.1368C68.7003 34.99 68.869 34.8764 69.0658 34.7942C69.2626 34.7138 69.4787 34.6719 69.7177 34.6719C69.9566 34.6719 70.1569 34.7086 70.3344 34.7837C70.5118 34.8572 70.67 34.9586 70.8053 35.0862L70.6594 35.2889C70.6506 35.3047 70.6383 35.3169 70.6243 35.3256C70.6102 35.3361 70.5909 35.3396 70.5663 35.3396C70.5382 35.3396 70.5048 35.3256 70.4661 35.2959C70.4275 35.2662 70.3748 35.233 70.3115 35.1963C70.2483 35.1596 70.1674 35.1264 70.0708 35.0966C69.9742 35.0669 69.8565 35.0529 69.7177 35.0529C69.549 35.0529 69.3944 35.0827 69.2538 35.1403C69.1132 35.198 68.9938 35.2837 68.8918 35.3938C68.7899 35.5039 68.7109 35.6385 68.6546 35.7976C68.5984 35.9567 68.5703 36.1367 68.5703 36.336C68.5703 36.5353 68.6002 36.7205 68.6582 36.8796C68.7161 37.0387 68.797 37.1733 68.8989 37.2834C69.0008 37.3935 69.1203 37.4774 69.2573 37.5351C69.3944 37.5928 69.5437 37.6208 69.7036 37.6208C69.8002 37.6208 69.8898 37.6155 69.9671 37.6033C70.0462 37.5911 70.1183 37.5736 70.1833 37.5491C70.2483 37.5246 70.3115 37.4949 70.3678 37.4565C70.424 37.4197 70.482 37.3743 70.5382 37.3236C70.5645 37.3009 70.5891 37.2886 70.6155 37.2886V37.2939Z" fill="#2D51A3"/>
<path d="M74.5503 37.9653H74.1567C74.0759 37.9653 74.0162 37.9339 73.9793 37.8727L73.1289 36.7085C73.1025 36.6718 73.0761 36.6456 73.0463 36.6298C73.0164 36.6141 72.9707 36.6054 72.9075 36.6054H72.5719V37.9636H72.1309V34.707H73.0551C73.2624 34.707 73.4416 34.728 73.5927 34.77C73.7438 34.8119 73.8686 34.8713 73.9652 34.95C74.0636 35.0287 74.1356 35.1231 74.1831 35.2349C74.2305 35.3468 74.2534 35.4709 74.2534 35.609C74.2534 35.7244 74.2358 35.831 74.1989 35.9324C74.162 36.0338 74.1093 36.1212 74.0408 36.2016C73.9722 36.282 73.8861 36.3484 73.7877 36.4043C73.6876 36.4603 73.5751 36.5022 73.4486 36.532C73.5049 36.5634 73.5541 36.6106 73.5945 36.67L74.5485 37.9636L74.5503 37.9653ZM73.0375 36.2855C73.1658 36.2855 73.2782 36.2698 73.3766 36.2383C73.475 36.2068 73.5576 36.1631 73.6226 36.1072C73.6894 36.0495 73.7385 35.9831 73.7719 35.9044C73.8053 35.8258 73.8229 35.7384 73.8229 35.6422C73.8229 35.4482 73.7596 35.3014 73.6314 35.2035C73.5031 35.1056 73.3116 35.0549 73.0551 35.0549H72.5701V36.2837H73.0357L73.0375 36.2855Z" fill="#2D51A3"/>
<path d="M77.7747 37.6052V37.9636H75.7559V34.707H77.7729V35.0654H76.1986V36.1474H77.4725V36.4935H76.1986V37.6052H77.7747Z" fill="#2D51A3"/>
<path d="M81.3704 35.0776H80.3109V37.9636H79.8698V35.0776H78.8086V34.707H81.3721V35.0776H81.3704Z" fill="#2D51A3"/>
<path d="M86.7112 37.2939C86.7358 37.2939 86.7569 37.3044 86.7745 37.3236L86.9502 37.5124C86.8166 37.6662 86.6532 37.7868 86.4617 37.8742C86.2702 37.9599 86.04 38.0036 85.7677 38.0036C85.534 38.0036 85.3196 37.9634 85.1281 37.8812C84.9366 37.8008 84.7732 37.6872 84.6379 37.5404C84.5026 37.3935 84.3972 37.2187 84.3234 37.0142C84.2496 36.8097 84.2109 36.5842 84.2109 36.3395C84.2109 36.0948 84.2496 35.8693 84.3269 35.6647C84.4042 35.4602 84.5131 35.2837 84.6555 35.1368C84.796 34.99 84.9647 34.8764 85.1615 34.7942C85.3583 34.7138 85.5744 34.6719 85.8134 34.6719C86.0523 34.6719 86.2526 34.7086 86.4301 34.7837C86.6075 34.8572 86.7657 34.9586 86.901 35.0862L86.7551 35.2889C86.7463 35.3047 86.734 35.3169 86.72 35.3256C86.7059 35.3361 86.6866 35.3396 86.662 35.3396C86.6339 35.3396 86.6005 35.3256 86.5619 35.2959C86.5232 35.2662 86.4705 35.233 86.4072 35.1963C86.344 35.1596 86.2632 35.1264 86.1665 35.0966C86.0699 35.0669 85.9522 35.0529 85.8134 35.0529C85.6447 35.0529 85.4901 35.0827 85.3495 35.1403C85.2089 35.198 85.0895 35.2837 84.9876 35.3938C84.8856 35.5039 84.8066 35.6385 84.7503 35.7976C84.6941 35.9567 84.666 36.1367 84.666 36.336C84.666 36.5353 84.6959 36.7205 84.7539 36.8796C84.8118 37.0387 84.8927 37.1733 84.9946 37.2834C85.0965 37.3935 85.216 37.4774 85.353 37.5351C85.4901 37.5928 85.6394 37.6208 85.7993 37.6208C85.8959 37.6208 85.9855 37.6155 86.0629 37.6033C86.1419 37.5911 86.214 37.5736 86.279 37.5491C86.344 37.5246 86.4072 37.4949 86.4635 37.4565C86.5197 37.4197 86.5777 37.3743 86.6339 37.3236C86.6602 37.3009 86.6848 37.2886 86.7112 37.2886V37.2939Z" fill="#2D51A3"/>
<path d="M91.1888 36.3377C91.1888 36.5825 91.1502 36.8062 91.0728 37.009C90.9955 37.2135 90.8848 37.3883 90.7443 37.5351C90.602 37.6819 90.4333 37.7956 90.233 37.8777C90.0344 37.9581 89.8148 38.0001 89.5741 38.0001C89.3334 38.0001 89.1137 37.9599 88.917 37.8777C88.7184 37.7973 88.5497 37.6819 88.4074 37.5351C88.2651 37.3883 88.1562 37.2135 88.0789 37.009C88.0015 36.8044 87.9629 36.5807 87.9629 36.3377C87.9629 36.0948 88.0015 35.8693 88.0789 35.6665C88.1562 35.462 88.2669 35.2872 88.4074 35.1386C88.5497 34.9918 88.7184 34.8764 88.917 34.7942C89.1155 34.7121 89.3334 34.6719 89.5741 34.6719C89.8148 34.6719 90.0344 34.7121 90.233 34.7942C90.4315 34.8764 90.602 34.99 90.7443 35.1386C90.8866 35.2872 90.9955 35.462 91.0728 35.6665C91.1502 35.871 91.1888 36.0948 91.1888 36.3377ZM90.7337 36.3377C90.7337 36.1385 90.7056 35.9584 90.6512 35.7993C90.5967 35.6403 90.5194 35.5057 90.4175 35.3956C90.3173 35.2854 90.1943 35.2015 90.052 35.1421C89.9097 35.0827 89.7498 35.0529 89.5723 35.0529C89.3949 35.0529 89.2385 35.0827 89.0944 35.1421C88.9503 35.2015 88.8291 35.2854 88.7272 35.3956C88.6253 35.5057 88.548 35.6403 88.4935 35.7993C88.439 35.9584 88.4109 36.1385 88.4109 36.3377C88.4109 36.537 88.439 36.717 88.4935 36.8761C88.548 37.0352 88.6271 37.168 88.7272 37.2782C88.8274 37.3883 88.9503 37.4722 89.0944 37.5299C89.2367 37.5876 89.3966 37.6173 89.5723 37.6173C89.748 37.6173 89.9097 37.5876 90.052 37.5299C90.1943 37.4722 90.3173 37.3865 90.4175 37.2782C90.5176 37.1698 90.5949 37.0334 90.6512 36.8761C90.7056 36.717 90.7337 36.5388 90.7337 36.3377Z" fill="#2D51A3"/>
<path d="M92.3105 37.7164C92.3105 37.6779 92.3176 37.6394 92.3316 37.6045C92.3457 37.5695 92.3668 37.5398 92.3914 37.5136C92.416 37.4874 92.4458 37.4681 92.481 37.4524C92.5161 37.4367 92.553 37.4297 92.5934 37.4297C92.6338 37.4297 92.6707 37.4367 92.7059 37.4524C92.741 37.4681 92.7709 37.4874 92.7972 37.5136C92.8236 37.5398 92.8429 37.5695 92.8587 37.6045C92.8746 37.6394 92.8816 37.6762 92.8816 37.7164C92.8816 37.7566 92.8746 37.795 92.8587 37.8282C92.8429 37.8632 92.8236 37.8929 92.7972 37.9174C92.7709 37.9419 92.741 37.9628 92.7059 37.9768C92.6707 37.9908 92.6338 37.9978 92.5934 37.9978C92.553 37.9978 92.5161 37.9908 92.481 37.9768C92.4458 37.9628 92.416 37.9419 92.3914 37.9174C92.3668 37.8912 92.3457 37.8614 92.3316 37.8282C92.3176 37.795 92.3105 37.7566 92.3105 37.7164Z" fill="#2D51A3"/>
<path d="M93.0005 0H70.8196C65.4642 0 61.748 4.98358 61.748 7.93247V22.2941C61.748 25.9807 66.9559 30.328 70.6228 30.328H84.3963C88.9997 30.328 92.9987 25.2815 92.9987 21.0705C90.7251 21.0705 91.0677 21.2453 86.7507 21.0845C86.7507 23.8936 83.5177 24.3008 83.5177 24.3008H71.5787C68.156 24.3008 67.9504 21.5932 67.9504 21.5932V9.42702C67.9504 6.69138 70.8179 5.9345 70.8179 5.9345H86.7366V14.9595L92.5841 5.90828L92.9987 5.26501V0H93.0005Z" fill="#2D51A3"/>
</svg>
