<svg width="20" height="36" viewBox="0 0 20 36" fill="none" xmlns="http://www.w3.org/2000/svg">
<path fill-rule="evenodd" clip-rule="evenodd" d="M19.0139 0.922121C19.1391 1.04694 19.2383 1.19523 19.3061 1.35848C19.3738 1.52173 19.4087 1.69675 19.4087 1.8735C19.4087 2.05025 19.3738 2.22526 19.3061 2.38851C19.2383 2.55176 19.1391 2.70005 19.0139 2.82487L3.8376 17.9985L19.0139 33.1721C19.1389 33.2971 19.238 33.4454 19.3056 33.6086C19.3732 33.7719 19.408 33.9468 19.408 34.1235C19.408 34.3002 19.3732 34.4751 19.3056 34.6384C19.238 34.8016 19.1388 34.9499 19.0139 35.0749C18.889 35.1998 18.7407 35.2989 18.5774 35.3665C18.4142 35.4341 18.2392 35.4689 18.0625 35.4689C17.8859 35.4689 17.7109 35.4341 17.5477 35.3665C17.3844 35.2989 17.2361 35.1998 17.1112 35.0749L0.986163 18.9499C0.861026 18.825 0.761743 18.6768 0.693999 18.5135C0.626258 18.3503 0.591388 18.1752 0.591388 17.9985C0.591388 17.8217 0.626258 17.6467 0.694 17.4835C0.761743 17.3202 0.861026 17.1719 0.986163 17.0471L17.1112 0.922121C17.236 0.796982 17.3843 0.697698 17.5475 0.629956C17.7108 0.562214 17.8858 0.527344 18.0625 0.527344C18.2393 0.527344 18.4143 0.562214 18.5776 0.629956C18.7408 0.697698 18.8891 0.796982 19.0139 0.922121Z" fill="#D9D9D9"/>
</svg>
